<svg xmlns="http://www.w3.org/2000/svg" viewBox="0 0 519 519"><defs><style>.a{stroke:#fff;stroke-miterlimit:10;stroke-width:7px}.b{fill:#fff}</style></defs><title>dotfiles</title><path d="M664,128h38a20.25,20.25,0,0,0,3.28.84c34.77,3,67.77,12.29,98.28,29.2C875.41,197.86,919.47,258.17,935.08,339c1.66,8.61,2.63,17.34,3.92,26v38a14.38,14.38,0,0,0-.81,2.78c-3,35.82-12.72,69.72-30.41,101-40,70.63-99.91,114-179.76,129.33-8.61,1.66-17.34,2.63-26,3.92H664a20.25,20.25,0,0,0-3.28-.84c-34.77-3-67.77-12.29-98.28-29.2C490.59,570.13,446.52,509.83,430.92,429c-1.66-8.61-2.63-17.34-3.92-26V365a20.25,20.25,0,0,0,.84-3.28c3-34.77,12.29-67.77,29.2-98.28C496.87,191.59,557.17,147.52,638,131.92,646.59,130.26,655.32,129.29,664,128Z" class="a" transform="translate(-423.5 -124.5)"/><path d="M548.72,531c5.22-10.2,10.07-19.77,15-29.3Q575.8,478.41,588,455.16l39.84-76.59q12.32-23.73,24.61-47.45,19.58-37.65,39.2-75.27c5.51-10.57,11.06-21.13,16.8-31.58.79-1.43,2.77-3.11,4.21-3.13,21-.2,42-.14,63.86-.14-1.85,3.35-3.46,6.09-4.92,8.91-7.5,14.54-14.94,29.11-22.46,43.64q-19.85,38.34-39.74,76.63Q696.71,374.57,684,398.92q-19.93,38.28-39.87,76.57c-8.38,16.1-16.9,32.13-25,48.35-2.53,5.07-5.33,7.52-11.52,7.34-17.81-.51-35.65-.18-53.48-.18Z" class="b" transform="translate(-423.5 -124.5)"/><path d="M703,476.87c-1.63-28,25-54.07,54.9-53,25.66.94,53.49,23.85,51.27,57.31-1.76,26.39-24.57,49.77-53.58,49.72C727.64,530.86,701.39,506.75,703,476.87Z" class="b" transform="translate(-423.5 -124.5)"/></svg>
