<?xml version="1.0" standalone="no"?>
<!DOCTYPE svg PUBLIC "-//W3C//DTD SVG 20010904//EN"
 "http://www.w3.org/TR/2001/REC-SVG-20010904/DTD/svg10.dtd">
<svg version="1.0" xmlns="http://www.w3.org/2000/svg"
 width="700.000000pt" height="700.000000pt" viewBox="0 0 700.000000 700.000000"
 preserveAspectRatio="xMidYMid meet">
<metadata>
Created by potrace 1.11, written by Peter Selinger 2001-2013
</metadata>
<g transform="translate(0.000000,700.000000) scale(0.100000,-0.100000)"
fill="#000000" stroke="none">
<path d="M3165 6894 c-237 -36 -300 -48 -435 -80 -958 -228 -1675 -760 -2183
-1621 -234 -395 -377 -831 -431 -1305 -24 -208 -22 -637 4 -810 103 -698 361
-1290 775 -1778 86 -101 292 -305 391 -388 651 -541 1366 -808 2194 -820 218
-3 248 -1 440 28 968 142 1725 578 2288 1318 34 44 99 138 145 208 288 443
435 829 518 1359 31 200 39 708 14 888 -73 527 -243 1012 -500 1427 -130 209
-359 486 -545 658 -178 164 -472 378 -695 504 -378 214 -763 338 -1263 405
-161 22 -595 26 -717 7z m1547 -1286 c-27 -51 -98 -187 -157 -303 -185 -360
-645 -1247 -1225 -2360 -306 -588 -592 -1138 -634 -1221 -83 -163 -106 -192
-158 -202 -18 -4 -217 -6 -441 -4 l-408 3 122 237 c67 130 170 329 229 442 59
113 286 549 505 970 1312 2524 1286 2476 1321 2508 l25 22 435 0 435 0 -49
-92z m-75 -2663 c183 -43 366 -177 466 -341 63 -104 90 -202 95 -340 3 -102 1
-134 -18 -200 -36 -132 -92 -227 -195 -330 -77 -78 -105 -98 -186 -138 -112
-54 -201 -76 -320 -76 -255 0 -517 159 -631 383 -59 118 -70 162 -75 307 -6
157 8 232 60 339 93 189 275 337 479 391 90 23 238 26 325 5z"/>
</g>
</svg>
